<?xml version="1.0" encoding="UTF-8" standalone="no"?>
<svg
   width="303.17902"
   height="324.4017"
   xml:space="preserve"
   overflow="hidden"
   version="1.1"
   id="svg95"
   sodipodi:docname="01_orientation_angles.svg"
   inkscape:version="1.2.2 (b0a8486, 2022-12-01)"
   xmlns:inkscape="http://www.inkscape.org/namespaces/inkscape"
   xmlns:sodipodi="http://sodipodi.sourceforge.net/DTD/sodipodi-0.dtd"
   xmlns="http://www.w3.org/2000/svg"
   xmlns:svg="http://www.w3.org/2000/svg"><sodipodi:namedview
     id="namedview97"
     pagecolor="#ffffff"
     bordercolor="#000000"
     borderopacity="0.25"
     inkscape:showpageshadow="2"
     inkscape:pageopacity="0.0"
     inkscape:pagecheckerboard="0"
     inkscape:deskcolor="#d1d1d1"
     showgrid="false"
     inkscape:zoom="1.0631582"
     inkscape:cx="60.198"
     inkscape:cy="196.1138"
     inkscape:window-width="1217"
     inkscape:window-height="735"
     inkscape:window-x="0"
     inkscape:window-y="25"
     inkscape:window-maximized="0"
     inkscape:current-layer="svg95" /><defs
     id="defs5" /><text
     fill="#000000"
     fill-opacity="0"
     font-family="Arial, Arial_MSFontService, sans-serif"
     font-size="44.3652px"
     direction="ltr"
     writing-mode="lr-tb"
     x="-1410.7338"
     y="-2005.0365"
     id="text57">՜</text><g
     id="g778"
     transform="matrix(0.19277,0,0,0.19277,-0.60240625,-8.1024582)"><path
       d="m 10.5,945 c 0,-136.69 348.99,-247.5 779.5,-247.5 430.51,0 779.5,110.81 779.5,247.5 0,136.69 -348.99,247.5 -779.5,247.5 C 359.49,1192.5 10.5,1081.69 10.5,945 Z"
       stroke="#41719c"
       stroke-width="4.58333"
       stroke-linecap="butt"
       stroke-linejoin="miter"
       stroke-miterlimit="8"
       stroke-opacity="1"
       fill="#5b9bd5"
       fill-rule="evenodd"
       fill-opacity="0.501961"
       id="path7" /><path
       d="M 589,945 969.68,704 H 1346 L 965.32,945 Z"
       fill="#c9c9c9"
       fill-rule="evenodd"
       fill-opacity="0.670588"
       id="path9" /><path
       d="M 10,938.5 C 10,507.99 358.99,159 789.5,159 1220.01,159 1569,507.99 1569,938.5 1569,1369.01 1220.01,1718 789.5,1718 358.99,1718 10,1369.01 10,938.5 Z"
       stroke="#41719c"
       stroke-width="13.75"
       stroke-linecap="butt"
       stroke-linejoin="miter"
       stroke-miterlimit="8"
       stroke-opacity="1"
       fill="none"
       fill-rule="evenodd"
       id="path11" /><path
       d="m 583.5,943.5 368.79,-421 h 388.21 l -368.79,421 z"
       stroke="#7f7f7f"
       stroke-width="4.58333"
       stroke-linecap="butt"
       stroke-linejoin="miter"
       stroke-miterlimit="8"
       stroke-opacity="1"
       fill="#c9c9c9"
       fill-rule="evenodd"
       fill-opacity="1"
       id="path13" /><path
       d="M 1145.7,522 776.999,942.901"
       stroke="#000000"
       stroke-width="10.3125"
       stroke-linecap="butt"
       stroke-linejoin="miter"
       stroke-miterlimit="8"
       stroke-opacity="1"
       fill="none"
       fill-rule="evenodd"
       id="path15" /><path
       d="M 1112.84,742 777.003,948.462"
       stroke="#7f7f7f"
       stroke-width="10.3125"
       stroke-linecap="butt"
       stroke-linejoin="miter"
       stroke-miterlimit="8"
       stroke-dasharray="41.25, 30.9375"
       stroke-opacity="1"
       fill="none"
       fill-rule="evenodd"
       id="path17" /><path
       d="m 1142.4,522.5 -1.9037,211.251"
       stroke="#7f7f7f"
       stroke-width="4.58333"
       stroke-linecap="butt"
       stroke-linejoin="miter"
       stroke-miterlimit="8"
       stroke-dasharray="18.3333, 13.75"
       stroke-opacity="1"
       fill="none"
       fill-rule="evenodd"
       id="path19" /><path
       d="m 1139.7,684.5 -38.2001,23.2209"
       stroke="#7f7f7f"
       stroke-width="6.875"
       stroke-linecap="butt"
       stroke-linejoin="miter"
       stroke-miterlimit="8"
       stroke-opacity="1"
       fill="none"
       fill-rule="evenodd"
       id="path21" /><path
       d="m 1102.5,708.5 v 48.03"
       stroke="#7f7f7f"
       stroke-width="6.875"
       stroke-linecap="butt"
       stroke-linejoin="miter"
       stroke-miterlimit="8"
       stroke-opacity="1"
       fill="none"
       fill-rule="evenodd"
       id="path23" /><path
       d="m 479.18,717.78 22.31,16.08 -5.36,7.43 -22.31,-16.07 z m 29.75,21.43 22.31,16.08 -5.36,7.44 -22.31,-16.08 z m 29.75,21.44 22.31,16.07 -5.36,7.44 -22.31,-16.07 z m 29.75,21.43 22.31,16.08 -5.36,7.43 -22.31,-16.07 z m 29.75,21.44 22.31,16.07 -5.36,7.44 -22.31,-16.08 z m 29.75,21.43 22.31,16.07 -5.36,7.44 -22.31,-16.07 z m 29.75,21.43 22.31,16.08 -5.36,7.44 -22.31,-16.08 z m 29.75,21.44 22.31,16.07 -5.36,7.44 -22.31,-16.08 z m 29.75,21.43 22.31,16.07 -5.36,7.44 -22.31,-16.07 z m 29.75,21.43 22.31,16.08 -5.36,7.44 -22.31,-16.08 z m 29.75,21.44 22.31,16.07 -5.36,7.44 -22.31,-16.08 z m 29.75,21.43 22.31,16.08 -5.36,7.43 -22.31,-16.07 z m 29.75,21.43 22.31,16.08 -5.36,7.44 -22.31,-16.08 z m 29.75,21.44 22.31,16.07 -5.36,7.44 -22.31,-16.08 z m 29.75,21.43 22.31,16.08 -5.36,7.43 -22.31,-16.07 z m 29.75,21.43 22.31,16.08 -5.36,7.44 -22.31,-16.08 z m 29.75,21.44 22.31,16.07 -5.36,7.44 -22.31,-16.07 z m 29.74,21.43 22.32,16.08 -5.36,7.43 -22.31,-16.07 z m 29.75,21.43 22.32,16.08 -5.36,7.44 -22.31,-16.08 z m 29.75,21.44 22.32,16.07 -5.36,7.44 -22.31,-16.07 z m 29.75,21.43 22.32,16.08 -5.36,7.43 -22.31,-16.07 z m 17.5,-6.4 16.12,36.27 -39.51,-3.81 c -2.52,-0.25 -4.36,-2.49 -4.12,-5.01 0.24,-2.51 2.48,-4.36 5,-4.12 l 31.69,3.06 -4.63,6.43 -12.93,-29.09 c -1.03,-2.32 0.01,-5.03 2.33,-6.05 2.31,-1.03 5.02,0.01 6.05,2.32 z"
       fill="#5b9bd5"
       fill-rule="nonzero"
       fill-opacity="1"
       id="path25" /><text
       fill="#000000"
       fill-opacity="1"
       font-family="'Cambria Math', 'Cambria Math_MSFontService', sans-serif"
       font-style="normal"
       font-variant="normal"
       font-weight="400"
       font-stretch="normal"
       font-size="83px"
       text-anchor="start"
       direction="ltr"
       writing-mode="lr-tb"
       unicode-bidi="normal"
       text-decoration="none"
       id="text27"
       style="text-decoration:none;text-decoration-line:none"
       x="1104.34"
       y="1243">𝑆</text><path
       d="m 990.87,739.2 12.58,6.35 9.72,7.64 8.22,8.61 3.64,4.8 3.2,4.96 2.79,5.18 2.36,5.39 1.9,5.57 1.39,5.55 -8.9,2.22 -1.33,-5.36 0.11,0.37 -1.78,-5.21 0.13,0.36 -2.2,-5.04 0.16,0.33 -2.61,-4.86 0.18,0.31 -3,-4.66 0.2,0.29 -3.38,-4.45 0.33,0.39 -7.81,-8.19 0.48,0.44 -9.11,-7.15 0.77,0.49 -12.17,-6.15 z m -2.45,18.58 -21.15,-22.31 30.54,-3.54 z"
       fill="#000000"
       fill-rule="nonzero"
       fill-opacity="1"
       id="path29" /><text
       fill="#000000"
       fill-opacity="1"
       font-family="'Cambria Math', 'Cambria Math_MSFontService', sans-serif"
       font-style="normal"
       font-variant="normal"
       font-weight="400"
       font-stretch="normal"
       font-size="83px"
       text-anchor="start"
       direction="ltr"
       writing-mode="lr-tb"
       unicode-bidi="normal"
       text-decoration="none"
       id="text31"
       style="text-decoration:none;text-decoration-line:none"
       x="1029.52"
       y="771">𝛽</text><text
       fill="#000000"
       fill-opacity="1"
       font-family="'Cambria Math', 'Cambria Math_MSFontService', sans-serif"
       font-style="normal"
       font-variant="normal"
       font-weight="400"
       font-stretch="normal"
       font-size="83px"
       text-anchor="start"
       direction="ltr"
       writing-mode="lr-tb"
       unicode-bidi="normal"
       text-decoration="none"
       id="text33"
       style="text-decoration:none;text-decoration-line:none"
       x="459.62"
       y="716">𝑁</text><text
       fill="#000000"
       fill-opacity="1"
       font-family="'Cambria Math', 'Cambria Math_MSFontService', sans-serif"
       font-style="normal"
       font-variant="normal"
       font-weight="400"
       font-stretch="normal"
       font-size="83px"
       text-anchor="start"
       direction="ltr"
       writing-mode="lr-tb"
       unicode-bidi="normal"
       text-decoration="none"
       id="text35"
       style="text-decoration:none;text-decoration-line:none"
       x="765.57001"
       y="1129">𝛾</text><path
       d="M 238.5,1119.52 1340.92,769.502"
       stroke="#5b9bd5"
       stroke-width="9.16667"
       stroke-linecap="square"
       stroke-linejoin="miter"
       stroke-miterlimit="8"
       stroke-dasharray="27.5, 9.16667"
       stroke-opacity="1"
       fill="none"
       fill-rule="evenodd"
       id="path37" /><text
       fill="#000000"
       fill-opacity="1"
       font-family="'Cambria Math', 'Cambria Math_MSFontService', sans-serif"
       font-style="normal"
       font-variant="normal"
       font-weight="400"
       font-stretch="normal"
       font-size="83px"
       text-anchor="start"
       direction="ltr"
       writing-mode="lr-tb"
       unicode-bidi="normal"
       text-decoration="none"
       id="text39"
       style="text-decoration:none;text-decoration-line:none"
       x="150.592"
       y="1212">𝑊</text><text
       fill="#000000"
       fill-opacity="1"
       font-family="'Cambria Math', 'Cambria Math_MSFontService', sans-serif"
       font-style="normal"
       font-variant="normal"
       font-weight="400"
       font-stretch="normal"
       font-size="83px"
       text-anchor="start"
       direction="ltr"
       writing-mode="lr-tb"
       unicode-bidi="normal"
       text-decoration="none"
       id="text41"
       style="text-decoration:none;text-decoration-line:none"
       x="1356.13"
       y="774">𝐸</text><path
       d="m 775.50191,939.61267 -23.32401,14.56853 4.8562,7.7747 23.32399,-14.56857 z m -31.09861,19.42473 -23.324,14.5685 4.8562,7.7747 23.324,-14.5685 z m -31.0986,19.4247 -23.324,14.5686 4.8562,7.7746 23.3239,-14.5685 z m -31.0987,19.4248 -23.324,14.5685 4.856,7.7747 23.3242,-14.5686 z m -31.099,19.4247 -23.324,14.5685 4.857,7.7747 23.324,-14.5686 z m -31.098,19.4247 -23.324,14.5687 4.856,7.775 23.324,-14.569 z m -31.099,19.4247 -23.324,14.569 4.856,7.774 23.324,-14.568 z m -31.098,19.425 -23.324,14.568 4.856,7.775 23.324,-14.569 z m -31.099,19.424 -23.324,14.569 4.856,7.775 23.324,-14.569 z m -31.099,19.425 -23.324,14.569 4.856,7.774 23.324,-14.568 z m -31.098,19.425 -23.324,14.568 4.856,7.775 23.324,-14.568 z m -27.98,6.668 -16.039,26.231 30.608,-2.907 z"
       fill="#000000"
       fill-rule="nonzero"
       fill-opacity="1"
       id="path43" /><path
       d="m 885.28,1003.5 -3.04,7.89 -4.2,7.73 -5.18,7.25 -6.07,6.73 -6.88,6.2 -7.62,5.64 -8.28,5.05 -8.89,4.46 -9.43,3.83 -9.9,3.18 -10.31,2.49 -10.65,1.8 -10.93,1.06 -11.15,0.29 -11.3,-0.49 -11.41,-1.33 -13.53,-2.69 -12.85,-3.83 -12.03,-4.88 -11.09,-5.88 -10.19,-6.91 -6.84,-6.91 6.52,-6.45 6.52,6.59 -0.68,-0.57 9.61,6.53 -0.43,-0.26 10.67,5.65 -0.42,-0.2 11.61,4.72 -0.42,-0.15 12.43,3.7 -0.41,-0.1 13.14,2.62 -0.37,-0.06 11.06,1.28 -0.33,-0.02 10.98,0.48 h -0.32 l 10.83,-0.29 -0.32,0.02 10.61,-1.03 -0.32,0.04 10.33,-1.74 -0.32,0.07 9.99,-2.42 -0.32,0.09 9.57,-3.08 -0.32,0.12 9.1,-3.69 -0.33,0.14 8.56,-4.28 -0.34,0.18 7.95,-4.85 -0.34,0.23 7.28,-5.39 -0.34,0.28 6.54,-5.89 -0.34,0.34 5.74,-6.37 -0.33,0.41 4.87,-6.81 -0.3,0.47 3.93,-7.22 -0.25,0.54 2.93,-7.61 z m -206.05,39.83 -7.26,-29.87 28.26,12.11 z"
       fill="#000000"
       fill-rule="nonzero"
       fill-opacity="1"
       id="path45" /><path
       d="m 1339.61,524.5 -4.1127,184.521"
       stroke="#afabab"
       stroke-width="4.58333"
       stroke-linecap="butt"
       stroke-linejoin="miter"
       stroke-miterlimit="8"
       stroke-dasharray="4.58333, 4.58333"
       stroke-opacity="1"
       fill="none"
       fill-rule="evenodd"
       id="path47" /><path
       d="m 1115.5,721 c 0,-5.25 3.58,-9.5 8,-9.5 4.42,0 8,4.25 8,9.5 0,5.25 -3.58,9.5 -8,9.5 -4.42,0 -8,-4.25 -8,-9.5 z"
       stroke="#a6a6a6"
       stroke-width="4.58333"
       stroke-linecap="butt"
       stroke-linejoin="miter"
       stroke-miterlimit="8"
       stroke-opacity="1"
       fill="#7f7f7f"
       fill-rule="evenodd"
       fill-opacity="1"
       id="path49" /><path
       d="m 773.82,945.87 -360.86,-514.31 7.51,-5.26 360.85,514.3 z m -359.01,-484.83 -3.32,-39.56 36.06,16.58 c 2.3,1.06 3.31,3.78 2.25,6.08 -1.05,2.3 -3.78,3.31 -6.08,2.25 l -28.92,-13.3 6.48,-4.54 2.66,31.72 c 0.21,2.52 -1.66,4.74 -4.18,4.95 -2.52,0.21 -4.74,-1.66 -4.95,-4.18 z"
       fill="#000000"
       fill-rule="nonzero"
       fill-opacity="1"
       id="path51" /><text
       fill="#000000"
       fill-opacity="1"
       font-family="'Cambria Math', 'Cambria Math_MSFontService', sans-serif"
       font-style="normal"
       font-variant="normal"
       font-weight="400"
       font-stretch="normal"
       font-size="80px"
       text-anchor="start"
       direction="ltr"
       writing-mode="lr-tb"
       unicode-bidi="normal"
       text-decoration="none"
       transform="rotate(-37.864878)"
       id="text53"
       style="text-decoration:none;text-decoration-line:none"
       x="122.16125"
       y="737.19049">𝑛</text><path
       d="m 478.1513,436.5622 53.55455,-41.63838 -19.30385,-4.78955 0.68849,-4.27722 29.225,3.19908 2.10994,2.71377 -4.10352,29.11172 -4.31496,-0.38709 0.0836,-19.9312 -53.55455,41.63838 z"
       fill="#000000"
       fill-rule="nonzero"
       fill-opacity="1"
       id="path55" /><path
       d="m 420.5,425.5 21.21,733.73"
       stroke="#7f7f7f"
       stroke-width="9.16667"
       stroke-linecap="butt"
       stroke-linejoin="miter"
       stroke-miterlimit="8"
       stroke-dasharray="36.6667, 27.5"
       stroke-opacity="1"
       fill="none"
       fill-rule="evenodd"
       id="path59" /><path
       d="m 456.5,1111 c 0,-5.25 3.58,-9.5 8,-9.5 4.42,0 8,4.25 8,9.5 0,5.25 -3.58,9.5 -8,9.5 -4.42,0 -8,-4.25 -8,-9.5 z"
       stroke="#7f7f7f"
       stroke-width="4.58333"
       stroke-linecap="butt"
       stroke-linejoin="miter"
       stroke-miterlimit="8"
       stroke-opacity="1"
       fill="#7f7f7f"
       fill-rule="evenodd"
       fill-opacity="1"
       id="path61" /><path
       d="m 482.7,1073.5 -38.2001,23.2209"
       stroke="#7f7f7f"
       stroke-width="9.16667"
       stroke-linecap="butt"
       stroke-linejoin="miter"
       stroke-miterlimit="8"
       stroke-opacity="1"
       fill="none"
       fill-rule="evenodd"
       id="path63" /><path
       d="m 485.5,1069.5 v 62.17"
       stroke="#7f7f7f"
       stroke-width="9.16667"
       stroke-linecap="butt"
       stroke-linejoin="miter"
       stroke-miterlimit="8"
       stroke-opacity="1"
       fill="none"
       fill-rule="evenodd"
       id="path65" /><path
       d="m 1330.7,669.5 -38.2001,23.2209"
       stroke="#a6a6a6"
       stroke-width="6.875"
       stroke-linecap="butt"
       stroke-linejoin="miter"
       stroke-miterlimit="8"
       stroke-opacity="1"
       fill="none"
       fill-rule="evenodd"
       id="path67" /><path
       d="m 1306,699.5 c 0,-5.25 3.81,-9.5 8.5,-9.5 4.69,0 8.5,4.25 8.5,9.5 0,5.25 -3.81,9.5 -8.5,9.5 -4.69,0 -8.5,-4.25 -8.5,-9.5 z"
       fill="#bfbfbf"
       fill-rule="evenodd"
       fill-opacity="1"
       id="path69" /><path
       d="m 1292.5,689.5 v 48.03"
       stroke="#a6a6a6"
       stroke-width="6.875"
       stroke-linecap="butt"
       stroke-linejoin="miter"
       stroke-miterlimit="8"
       stroke-opacity="1"
       fill="none"
       fill-rule="evenodd"
       id="path71" /><path
       d="m 835,170 35.06,-8.02 -26.35,-24.48 34.37,10.58 -10.58,-34.37 24.48,26.35 8.02,-35.06 8.02,35.06 24.48,-26.35 -10.58,34.37 34.37,-10.58 -26.35,24.48 35.06,8.02 -35.06,8.02 26.35,24.48 -34.37,-10.58 10.58,34.37 -24.48,-26.35 -8.02,35.06 -8.02,-35.06 -24.48,26.35 10.58,-34.37 -34.37,10.58 26.35,-24.48 z"
       fill="#ffc000"
       fill-rule="evenodd"
       fill-opacity="1"
       id="path73" /><text
       fill="#000000"
       fill-opacity="1"
       font-family="'Cambria Math', 'Cambria Math_MSFontService', sans-serif"
       font-style="normal"
       font-variant="normal"
       font-weight="400"
       font-stretch="normal"
       font-size="83px"
       text-anchor="start"
       direction="ltr"
       writing-mode="lr-tb"
       unicode-bidi="normal"
       text-decoration="none"
       id="text75"
       style="text-decoration:none;text-decoration-line:none"
       x="912.47998"
       y="98">𝑆𝑢𝑛</text><path
       d="m 792.43444,887.96316 5.68166,-36.22376 -9.05594,-1.4204 -5.68167,36.22374 z m 9.94296,-63.39166 1.4204,-9.0559 -9.05597,-1.4204 -1.42042,9.0559 z m 5.6816,-36.2235 5.6817,-36.224 -9.056,-1.42 -5.6816,36.223 z m 9.9429,-63.392 1.4205,-9.056 -9.056,-1.42 -1.4204,9.056 z m 5.6817,-36.224 5.6817,-36.223 -9.056,-1.421 -5.6816,36.224 z m 9.9429,-63.391 1.4204,-9.056 -9.0559,-1.421 -1.4204,9.056 z m 5.6817,-36.224 5.6817,-36.224 -9.056,-1.42 -5.6817,36.223 z m 9.9429,-63.392 1.4204,-9.056 -9.0559,-1.42 -1.4204,9.056 z m 5.6817,-36.224 5.6816,-36.223 -9.0559,-1.421 -5.6817,36.224 z m 9.9429,-63.391 1.4204,-9.056 -9.0559,-1.421 -1.4205,9.056 z m 5.6817,-36.224 5.6816,-36.224 -9.0559,-1.42 -5.6817,36.224 z m 9.9429,-63.392 1.4204,-9.056 -9.056,-1.42 -1.4204,9.056 z m 5.6816,-36.223 5.6821,-36.224 -9.0563,-1.421 -5.6817,36.224 z m 9.9431,-63.392 1.42,-9.056 -9.056,-1.42 -1.42,9.056 z m 5.682,-36.224 1.952,-12.449 -9.056,-1.421 -1.952,12.45 z m -129.7565,668.6141 14.44621,36.97189 25.07199,-30.77349 c 1.5988,-1.9625 1.3041,-4.8495 -0.6584,-6.4483 -1.9624,-1.5989 -4.8494,-1.3041 -6.4483,0.6583 l -20.10911,24.6821 7.82234,1.227 -11.58669,-29.6536 c -0.92124,-2.3577 -3.57936,-3.5222 -5.93704,-2.601 -2.3577,0.9213 -3.5222,3.5794 -2.601,5.9371 z"
       fill="#ed7d31"
       fill-rule="nonzero"
       fill-opacity="1"
       id="path77" /><path
       d="m 648.02,772.29 0.76,-5.79 1.66,-5.89 2.46,-5.63 3.2,-5.33 3.87,-5 4.49,-4.64 5.06,-4.28 5.59,-3.9 6.07,-3.49 6.51,-3.07 6.9,-2.63 7.27,-2.16 7.58,-1.67 7.86,-1.17 8.11,-0.62 8.33,-0.06 11.01,0.82 10.64,1.81 10.14,2.77 9.7,3.73 10.49,6.66 -4.92,7.74 -10.1,-6.41 0.8,0.4 -9.05,-3.49 0.44,0.15 -9.69,-2.65 0.43,0.1 -10.21,-1.74 0.43,0.05 -10.6,-0.79 0.37,0.02 -7.99,0.05 0.32,-0.01 -7.78,0.6 0.31,-0.03 -7.54,1.11 0.32,-0.06 -7.27,1.61 0.32,-0.09 -6.94,2.07 0.32,-0.11 -6.58,2.5 0.33,-0.14 -6.18,2.92 0.33,-0.17 -5.73,3.3 0.33,-0.22 -5.25,3.66 0.34,-0.26 -4.72,4 0.33,-0.32 -4.16,4.3 0.33,-0.37 -3.55,4.58 0.31,-0.45 -2.91,4.84 0.27,-0.52 -2.21,5.07 0.21,-0.59 -1.49,5.27 0.13,-0.64 -0.71,5.45 z m 140.74,-49.08 11.87,28.37 -29.82,-7.53 z"
       fill="#000000"
       fill-rule="nonzero"
       fill-opacity="1"
       id="path79" /><text
       fill="#000000"
       fill-opacity="1"
       font-family="'Cambria Math', 'Cambria Math_MSFontService', sans-serif"
       font-style="normal"
       font-variant="normal"
       font-weight="400"
       font-stretch="normal"
       font-size="83px"
       text-anchor="start"
       direction="ltr"
       writing-mode="lr-tb"
       unicode-bidi="normal"
       text-decoration="none"
       id="text81"
       style="text-decoration:none;text-decoration-line:none"
       x="704.21997"
       y="682">𝜃</text><path
       d="M 980.5,942.82 1335.538,708.498"
       stroke="#7f7f7f"
       stroke-width="4.58333"
       stroke-linecap="butt"
       stroke-linejoin="miter"
       stroke-miterlimit="8"
       stroke-dasharray="4.58333, 4.58333"
       stroke-opacity="1"
       fill="none"
       fill-rule="evenodd"
       id="path83" /><path
       d="m 1157.5,704.5 157.16,4.34"
       stroke="#afabab"
       stroke-width="4.58333"
       stroke-linecap="butt"
       stroke-linejoin="miter"
       stroke-miterlimit="8"
       stroke-dasharray="4.58333, 4.58333"
       stroke-opacity="1"
       fill="none"
       fill-rule="evenodd"
       id="path85" /><path
       d="m 775.89,874.5 -28.3853,31.0974"
       stroke="#7f7f7f"
       stroke-width="9.16667"
       stroke-linecap="butt"
       stroke-linejoin="miter"
       stroke-miterlimit="8"
       stroke-opacity="1"
       fill="none"
       fill-rule="evenodd"
       id="path87" /><path
       d="m 775.5,865.5 29.15,48"
       stroke="#7f7f7f"
       stroke-width="9.16667"
       stroke-linecap="butt"
       stroke-linejoin="miter"
       stroke-miterlimit="8"
       stroke-opacity="1"
       fill="none"
       fill-rule="evenodd"
       id="path89" /><path
       d="m 768.5,907 c 0,-5.25 3.58,-9.5 8,-9.5 4.42,0 8,4.25 8,9.5 0,5.25 -3.58,9.5 -8,9.5 -4.42,0 -8,-4.25 -8,-9.5 z"
       stroke="#7f7f7f"
       stroke-width="4.58333"
       stroke-linecap="butt"
       stroke-linejoin="miter"
       stroke-miterlimit="8"
       stroke-opacity="1"
       fill="#7f7f7f"
       fill-rule="evenodd"
       fill-opacity="1"
       id="path91" /></g></svg>
