<svg width="1576" height="1728" xmlns="http://www.w3.org/2000/svg" xmlns:xlink="http://www.w3.org/1999/xlink" xml:space="preserve" overflow="hidden"><defs><clipPath id="clip0"><rect x="779" y="1269" width="1576" height="1728"/></clipPath></defs><g clip-path="url(#clip0)" transform="translate(-779 -1269)"><path d="M789.5 2214C789.5 2077.31 1138.49 1966.5 1569 1966.5 1999.51 1966.5 2348.5 2077.31 2348.5 2214 2348.5 2350.69 1999.51 2461.5 1569 2461.5 1138.49 2461.5 789.5 2350.69 789.5 2214Z" stroke="#41719C" stroke-width="4.58333" stroke-linecap="butt" stroke-linejoin="miter" stroke-miterlimit="8" stroke-opacity="1" fill="#5B9BD5" fill-rule="evenodd" fill-opacity="0.501961"/><path d="M1368 2214 1748.68 1973 2125 1973 1744.32 2214Z" fill="#C9C9C9" fill-rule="evenodd" fill-opacity="0.670588"/><path d="M789 2207.5C789 1776.99 1137.99 1428 1568.5 1428 1999.01 1428 2348 1776.99 2348 2207.5 2348 2638.01 1999.01 2987 1568.5 2987 1137.99 2987 789 2638.01 789 2207.5Z" stroke="#41719C" stroke-width="13.75" stroke-linecap="butt" stroke-linejoin="miter" stroke-miterlimit="8" stroke-opacity="1" fill="none" fill-rule="evenodd"/><path d="M1362.5 2212.5 1731.29 1791.5 2119.5 1791.5 1750.71 2212.5Z" stroke="#7F7F7F" stroke-width="4.58333" stroke-linecap="butt" stroke-linejoin="miter" stroke-miterlimit="8" stroke-opacity="1" fill="#C9C9C9" fill-rule="evenodd" fill-opacity="1"/><path d="M0 0 368.701 420.901" stroke="#000000" stroke-width="10.3125" stroke-linecap="butt" stroke-linejoin="miter" stroke-miterlimit="8" stroke-opacity="1" fill="none" fill-rule="evenodd" transform="matrix(-1 0 0 1 1924.7 1791)"/><path d="M0 0 335.837 206.462" stroke="#7F7F7F" stroke-width="10.3125" stroke-linecap="butt" stroke-linejoin="miter" stroke-miterlimit="8" stroke-dasharray="41.25 30.9375" stroke-opacity="1" fill="none" fill-rule="evenodd" transform="matrix(-1 0 0 1 1891.84 2011)"/><path d="M0 0 1.90371 211.251" stroke="#7F7F7F" stroke-width="4.58333" stroke-linecap="butt" stroke-linejoin="miter" stroke-miterlimit="8" stroke-dasharray="18.3333 13.75" stroke-opacity="1" fill="none" fill-rule="evenodd" transform="matrix(-1 0 0 1 1921.4 1791.5)"/><path d="M0 0 38.2001 23.2209" stroke="#7F7F7F" stroke-width="6.875" stroke-linecap="butt" stroke-linejoin="miter" stroke-miterlimit="8" stroke-opacity="1" fill="none" fill-rule="evenodd" transform="matrix(-1 0 0 1 1918.7 1953.5)"/><path d="M1881.5 1977.5 1881.5 2025.53" stroke="#7F7F7F" stroke-width="6.875" stroke-linecap="butt" stroke-linejoin="miter" stroke-miterlimit="8" stroke-opacity="1" fill="none" fill-rule="evenodd"/><path d="M1258.18 1986.78 1280.49 2002.86 1275.13 2010.29 1252.82 1994.22ZM1287.93 2008.21 1310.24 2024.29 1304.88 2031.73 1282.57 2015.65ZM1317.68 2029.65 1339.99 2045.72 1334.63 2053.16 1312.32 2037.09ZM1347.43 2051.08 1369.74 2067.16 1364.38 2074.59 1342.07 2058.52ZM1377.18 2072.52 1399.49 2088.59 1394.13 2096.03 1371.82 2079.95ZM1406.93 2093.95 1429.24 2110.02 1423.88 2117.46 1401.57 2101.39ZM1436.68 2115.38 1458.99 2131.46 1453.63 2138.9 1431.32 2122.82ZM1466.43 2136.82 1488.74 2152.89 1483.38 2160.33 1461.07 2144.25ZM1496.18 2158.25 1518.49 2174.32 1513.13 2181.76 1490.82 2165.69ZM1525.93 2179.68 1548.24 2195.76 1542.88 2203.2 1520.57 2187.12ZM1555.68 2201.12 1577.99 2217.19 1572.63 2224.63 1550.32 2208.55ZM1585.43 2222.55 1607.74 2238.63 1602.38 2246.06 1580.07 2229.99ZM1615.18 2243.98 1637.49 2260.06 1632.13 2267.5 1609.82 2251.42ZM1644.93 2265.42 1667.24 2281.49 1661.88 2288.93 1639.57 2272.85ZM1674.68 2286.85 1696.99 2302.93 1691.63 2310.36 1669.32 2294.29ZM1704.43 2308.28 1726.74 2324.36 1721.38 2331.8 1699.07 2315.72ZM1734.18 2329.72 1756.49 2345.79 1751.13 2353.23 1728.82 2337.16ZM1763.92 2351.15 1786.24 2367.23 1780.88 2374.66 1758.57 2358.59ZM1793.67 2372.58 1815.99 2388.66 1810.63 2396.1 1788.32 2380.02ZM1823.42 2394.02 1845.74 2410.09 1840.38 2417.53 1818.07 2401.46ZM1853.17 2415.45 1875.49 2431.53 1870.13 2438.96 1847.82 2422.89ZM1870.67 2409.05 1886.79 2445.32 1847.28 2441.51C1844.76 2441.26 1842.92 2439.02 1843.16 2436.5 1843.4 2433.99 1845.64 2432.14 1848.16 2432.38L1879.85 2435.44 1875.22 2441.87 1862.29 2412.78C1861.26 2410.46 1862.3 2407.75 1864.62 2406.73 1866.93 2405.7 1869.64 2406.74 1870.67 2409.05Z" fill="#5B9BD5" fill-rule="nonzero" fill-opacity="1"/><text fill="#000000" fill-opacity="1" font-family="Cambria Math,Cambria Math_MSFontService,sans-serif" font-style="normal" font-variant="normal" font-weight="400" font-stretch="normal" font-size="83" text-anchor="start" direction="ltr" writing-mode="lr-tb" unicode-bidi="normal" text-decoration="none" transform="translate(1883.34 2512)">𝑆</text><path d="M1769.87 2008.2 1782.45 2014.55 1792.17 2022.19 1800.39 2030.8 1804.03 2035.6 1807.23 2040.56 1810.02 2045.74 1812.38 2051.13 1814.28 2056.7 1815.67 2062.25 1806.77 2064.47 1805.44 2059.11 1805.55 2059.48 1803.77 2054.27 1803.9 2054.63 1801.7 2049.59 1801.86 2049.92 1799.25 2045.06 1799.43 2045.37 1796.43 2040.71 1796.63 2041 1793.25 2036.55 1793.58 2036.94 1785.77 2028.75 1786.25 2029.19 1777.14 2022.04 1777.91 2022.53 1765.74 2016.38ZM1767.42 2026.78 1746.27 2004.47 1776.81 2000.93Z" fill="#000000" fill-rule="nonzero" fill-opacity="1"/><text fill="#000000" fill-opacity="1" font-family="Cambria Math,Cambria Math_MSFontService,sans-serif" font-style="normal" font-variant="normal" font-weight="400" font-stretch="normal" font-size="83" text-anchor="start" direction="ltr" writing-mode="lr-tb" unicode-bidi="normal" text-decoration="none" transform="translate(1808.52 2040)">𝛽</text><text fill="#000000" fill-opacity="1" font-family="Cambria Math,Cambria Math_MSFontService,sans-serif" font-style="normal" font-variant="normal" font-weight="400" font-stretch="normal" font-size="83" text-anchor="start" direction="ltr" writing-mode="lr-tb" unicode-bidi="normal" text-decoration="none" transform="translate(1238.62 1985)">𝑁</text><text fill="#000000" fill-opacity="1" font-family="Cambria Math,Cambria Math_MSFontService,sans-serif" font-style="normal" font-variant="normal" font-weight="400" font-stretch="normal" font-size="83" text-anchor="start" direction="ltr" writing-mode="lr-tb" unicode-bidi="normal" text-decoration="none" transform="translate(1544.57 2398)">𝛾</text><path d="M0 0 1102.42 350.018" stroke="#5B9BD5" stroke-width="9.16667" stroke-linecap="square" stroke-linejoin="miter" stroke-miterlimit="8" stroke-dasharray="27.5 9.16667" stroke-opacity="1" fill="none" fill-rule="evenodd" transform="matrix(1 0 0 -1 1017.5 2388.52)"/><text fill="#000000" fill-opacity="1" font-family="Cambria Math,Cambria Math_MSFontService,sans-serif" font-style="normal" font-variant="normal" font-weight="400" font-stretch="normal" font-size="83" text-anchor="start" direction="ltr" writing-mode="lr-tb" unicode-bidi="normal" text-decoration="none" transform="translate(929.592 2481)">𝑊</text><text fill="#000000" fill-opacity="1" font-family="Cambria Math,Cambria Math_MSFontService,sans-serif" font-style="normal" font-variant="normal" font-weight="400" font-stretch="normal" font-size="83" text-anchor="start" direction="ltr" writing-mode="lr-tb" unicode-bidi="normal" text-decoration="none" transform="translate(2135.13 2043)">𝐸</text><path d="M2.42809-3.88733 25.7521 10.6812 20.8959 18.4559-2.42809 3.88733ZM33.5267 15.5374 56.8507 30.1059 51.9945 37.8806 28.6705 23.3121ZM64.6253 34.9621 87.9493 49.5307 83.0931 57.3053 59.7692 42.7368ZM95.724 54.3869 119.048 68.9554 114.192 76.7301 90.8678 62.1615ZM126.823 73.8116 150.147 88.3801 145.29 96.1548 121.966 81.5862ZM157.921 93.2363 181.245 107.805 176.389 115.58 153.065 101.011ZM189.02 112.661 212.344 127.23 207.488 135.004 184.164 120.436ZM220.118 132.086 243.442 146.654 238.586 154.429 215.262 139.86ZM251.217 151.51 274.541 166.079 269.685 173.854 246.361 159.285ZM282.316 170.935 305.64 185.504 300.784 193.278 277.46 178.71ZM313.414 190.36 336.738 204.928 331.882 212.703 308.558 198.135ZM341.394 197.028 357.433 223.259 326.825 220.352Z" fill="#000000" fill-rule="nonzero" fill-opacity="1" transform="matrix(-1 0 0 1 1556.93 2212.5)"/><path d="M1664.28 2272.5 1661.24 2280.39 1657.04 2288.12 1651.86 2295.37 1645.79 2302.1 1638.91 2308.3 1631.29 2313.94 1623.01 2318.99 1614.12 2323.45 1604.69 2327.28 1594.79 2330.46 1584.48 2332.95 1573.83 2334.75 1562.9 2335.81 1551.75 2336.1 1540.45 2335.61 1529.04 2334.28 1515.51 2331.59 1502.66 2327.76 1490.63 2322.88 1479.54 2317 1469.35 2310.09 1462.51 2303.18 1469.03 2296.73 1475.55 2303.32 1474.87 2302.75 1484.48 2309.28 1484.05 2309.02 1494.72 2314.67 1494.3 2314.47 1505.91 2319.19 1505.49 2319.04 1517.92 2322.74 1517.51 2322.64 1530.65 2325.26 1530.28 2325.2 1541.34 2326.48 1541.01 2326.46 1551.99 2326.94 1551.67 2326.94 1562.5 2326.65 1562.18 2326.67 1572.79 2325.64 1572.47 2325.68 1582.8 2323.94 1582.48 2324.01 1592.47 2321.59 1592.15 2321.68 1601.72 2318.6 1601.4 2318.72 1610.5 2315.03 1610.17 2315.17 1618.73 2310.89 1618.39 2311.07 1626.34 2306.22 1626 2306.45 1633.28 2301.06 1632.94 2301.34 1639.48 2295.45 1639.14 2295.79 1644.88 2289.42 1644.55 2289.83 1649.42 2283.02 1649.12 2283.49 1653.05 2276.27 1652.8 2276.81 1655.73 2269.2ZM1458.23 2312.33 1450.97 2282.46 1479.23 2294.57Z" fill="#000000" fill-rule="nonzero" fill-opacity="1"/><path d="M0 0 4.11273 184.521" stroke="#AFABAB" stroke-width="4.58333" stroke-linecap="butt" stroke-linejoin="miter" stroke-miterlimit="8" stroke-dasharray="4.58333 4.58333" stroke-opacity="1" fill="none" fill-rule="evenodd" transform="matrix(-1 0 0 1 2118.61 1793.5)"/><path d="M1894.5 1990C1894.5 1984.75 1898.08 1980.5 1902.5 1980.5 1906.92 1980.5 1910.5 1984.75 1910.5 1990 1910.5 1995.25 1906.92 1999.5 1902.5 1999.5 1898.08 1999.5 1894.5 1995.25 1894.5 1990Z" stroke="#A6A6A6" stroke-width="4.58333" stroke-linecap="butt" stroke-linejoin="miter" stroke-miterlimit="8" stroke-opacity="1" fill="#7F7F7F" fill-rule="evenodd" fill-opacity="1"/><path d="M1552.82 2214.87 1191.96 1700.56 1199.47 1695.3 1560.32 2209.6ZM1193.81 1730.04 1190.49 1690.48 1226.55 1707.06C1228.85 1708.12 1229.86 1710.84 1228.8 1713.14 1227.75 1715.44 1225.02 1716.45 1222.72 1715.39L1193.8 1702.09 1200.28 1697.55 1202.94 1729.27C1203.15 1731.79 1201.28 1734.01 1198.76 1734.22 1196.24 1734.43 1194.02 1732.56 1193.81 1730.04Z" fill="#000000" fill-rule="nonzero" fill-opacity="1"/><text fill="#000000" fill-opacity="1" font-family="Cambria Math,Cambria Math_MSFontService,sans-serif" font-style="normal" font-variant="normal" font-weight="400" font-stretch="normal" font-size="80" text-anchor="start" direction="ltr" writing-mode="lr-tb" unicode-bidi="normal" text-decoration="none" transform="matrix(0.78946 -0.613801 0.613801 0.78946 1327.93 1776)">𝑛</text><path d="M6.17676-35.0195 74.0137-35.0195 61.7139-50.6494 64.8828-53.6035 85.9912-33.1396 85.9912-29.7021 64.8828-9.23828 61.7139-12.1924 74.0137-27.876 6.17676-27.876Z" fill="#000000" fill-rule="nonzero" fill-opacity="1" transform="matrix(0.78946 -0.613801 0.613801 0.78946 1273.77 1737)"/><text fill="#000000" fill-opacity="0" font-family="Arial,Arial_MSFontService,sans-serif" font-size="44.3652" direction="ltr" writing-mode="lr-tb" x="6.17676" y="-14.7839">՜</text><path d="M1199.5 1694.5 1220.71 2428.23" stroke="#7F7F7F" stroke-width="9.16667" stroke-linecap="butt" stroke-linejoin="miter" stroke-miterlimit="8" stroke-dasharray="36.6667 27.5" stroke-opacity="1" fill="none" fill-rule="evenodd"/><path d="M1235.5 2380C1235.5 2374.75 1239.08 2370.5 1243.5 2370.5 1247.92 2370.5 1251.5 2374.75 1251.5 2380 1251.5 2385.25 1247.92 2389.5 1243.5 2389.5 1239.08 2389.5 1235.5 2385.25 1235.5 2380Z" stroke="#7F7F7F" stroke-width="4.58333" stroke-linecap="butt" stroke-linejoin="miter" stroke-miterlimit="8" stroke-opacity="1" fill="#7F7F7F" fill-rule="evenodd" fill-opacity="1"/><path d="M0 0 38.2001 23.2209" stroke="#7F7F7F" stroke-width="9.16667" stroke-linecap="butt" stroke-linejoin="miter" stroke-miterlimit="8" stroke-opacity="1" fill="none" fill-rule="evenodd" transform="matrix(-1 0 0 1 1261.7 2342.5)"/><path d="M1264.5 2338.5 1264.5 2400.67" stroke="#7F7F7F" stroke-width="9.16667" stroke-linecap="butt" stroke-linejoin="miter" stroke-miterlimit="8" stroke-opacity="1" fill="none" fill-rule="evenodd"/><path d="M0 0 38.2001 23.2209" stroke="#A6A6A6" stroke-width="6.875" stroke-linecap="butt" stroke-linejoin="miter" stroke-miterlimit="8" stroke-opacity="1" fill="none" fill-rule="evenodd" transform="matrix(-1 0 0 1 2109.7 1938.5)"/><path d="M2085 1968.5C2085 1963.25 2088.81 1959 2093.5 1959 2098.19 1959 2102 1963.25 2102 1968.5 2102 1973.75 2098.19 1978 2093.5 1978 2088.81 1978 2085 1973.75 2085 1968.5Z" fill="#BFBFBF" fill-rule="evenodd" fill-opacity="1"/><path d="M2071.5 1958.5 2071.5 2006.53" stroke="#A6A6A6" stroke-width="6.875" stroke-linecap="butt" stroke-linejoin="miter" stroke-miterlimit="8" stroke-opacity="1" fill="none" fill-rule="evenodd"/><path d="M1614 1439 1649.06 1430.98 1622.71 1406.5 1657.08 1417.08 1646.5 1382.71 1670.98 1409.06 1679 1374 1687.02 1409.06 1711.5 1382.71 1700.92 1417.08 1735.29 1406.5 1708.94 1430.98 1744 1439 1708.94 1447.02 1735.29 1471.5 1700.92 1460.92 1711.5 1495.29 1687.02 1468.94 1679 1504 1670.98 1468.94 1646.5 1495.29 1657.08 1460.92 1622.71 1471.5 1649.06 1447.02Z" fill="#FFC000" fill-rule="evenodd" fill-opacity="1"/><text fill="#000000" fill-opacity="1" font-family="Cambria Math,Cambria Math_MSFontService,sans-serif" font-style="normal" font-variant="normal" font-weight="400" font-stretch="normal" font-size="83" text-anchor="start" direction="ltr" writing-mode="lr-tb" unicode-bidi="normal" text-decoration="none" transform="translate(1691.48 1367)">𝑆𝑢𝑛</text><path d="M5.93444 8.25684 11.6161 44.4806 2.56016 45.901-3.12151 9.67726ZM15.8774 71.6485 17.2978 80.7044 8.24183 82.1248 6.82141 73.0689ZM21.559 107.872 27.2407 144.096 18.1847 145.516 12.5031 109.293ZM31.5019 171.264 32.9224 180.32 23.8664 181.74 22.446 172.684ZM37.1836 207.488 42.8653 243.711 33.8093 245.132 28.1277 208.908ZM47.1265 270.879 48.5469 279.935 39.491 281.356 38.0706 272.3ZM52.8082 307.103 58.4899 343.327 49.4339 344.747 43.7522 308.524ZM62.7511 370.495 64.1715 379.551 55.1156 380.971 53.6952 371.915ZM68.4328 406.719 74.1144 442.942 65.0585 444.363 59.3768 408.139ZM78.3757 470.11 79.7961 479.166 70.7402 480.587 69.3197 471.531ZM84.0574 506.334 89.739 542.558 80.6831 543.978 75.0014 507.754ZM94.0003 569.726 95.4207 578.782 86.3647 580.202 84.9443 571.146ZM99.6819 605.949 105.364 642.173 96.3077 643.594 90.626 607.37ZM109.625 669.341 111.045 678.397 101.989 679.817 100.569 670.761ZM115.307 705.565 117.259 718.014 108.203 719.435 106.251 706.985ZM-14.4495 36.9509-0.00329147-0.0209874 25.0687 30.7525C26.6675 32.715 26.3728 35.602 24.4103 37.2008 22.4479 38.7997 19.5609 38.5049 17.962 36.5425L-2.14711 11.8604 5.67523 10.6334-5.91146 40.287C-6.8327 42.6447-9.49082 43.8092-11.8485 42.888-14.2062 41.9667-15.3707 39.3086-14.4495 36.9509Z" fill="#ED7D31" fill-rule="nonzero" fill-opacity="1" transform="matrix(1 0 0 -1 1565.5 2165.22)"/><path d="M1427.02 2041.29 1427.78 2035.5 1429.44 2029.61 1431.9 2023.98 1435.1 2018.65 1438.97 2013.65 1443.46 2009.01 1448.52 2004.73 1454.11 2000.83 1460.18 1997.34 1466.69 1994.27 1473.59 1991.64 1480.86 1989.48 1488.44 1987.81 1496.3 1986.64 1504.41 1986.02 1512.74 1985.96 1523.75 1986.78 1534.39 1988.59 1544.53 1991.36 1554.23 1995.09 1564.72 2001.75 1559.8 2009.49 1549.7 2003.08 1550.5 2003.48 1541.45 1999.99 1541.89 2000.14 1532.2 1997.49 1532.63 1997.59 1522.42 1995.85 1522.85 1995.9 1512.25 1995.11 1512.62 1995.13 1504.63 1995.18 1504.95 1995.17 1497.17 1995.77 1497.48 1995.74 1489.94 1996.85 1490.26 1996.79 1482.99 1998.4 1483.31 1998.31 1476.37 2000.38 1476.69 2000.27 1470.11 2002.77 1470.44 2002.63 1464.26 2005.55 1464.59 2005.38 1458.86 2008.68 1459.19 2008.46 1453.94 2012.12 1454.28 2011.86 1449.56 2015.86 1449.89 2015.54 1445.73 2019.84 1446.06 2019.47 1442.51 2024.05 1442.82 2023.6 1439.91 2028.44 1440.18 2027.92 1437.97 2032.99 1438.18 2032.4 1436.69 2037.67 1436.82 2037.03 1436.11 2042.48ZM1567.76 1992.21 1579.63 2020.58 1549.81 2013.05Z" fill="#000000" fill-rule="nonzero" fill-opacity="1"/><text fill="#000000" fill-opacity="1" font-family="Cambria Math,Cambria Math_MSFontService,sans-serif" font-style="normal" font-variant="normal" font-weight="400" font-stretch="normal" font-size="83" text-anchor="start" direction="ltr" writing-mode="lr-tb" unicode-bidi="normal" text-decoration="none" transform="translate(1483.22 1951)">𝜃</text><path d="M0 0 355.038 234.322" stroke="#7F7F7F" stroke-width="4.58333" stroke-linecap="butt" stroke-linejoin="miter" stroke-miterlimit="8" stroke-dasharray="4.58333 4.58333" stroke-opacity="1" fill="none" fill-rule="evenodd" transform="matrix(1 0 0 -1 1759.5 2211.82)"/><path d="M1936.5 1973.5 2093.66 1977.84" stroke="#AFABAB" stroke-width="4.58333" stroke-linecap="butt" stroke-linejoin="miter" stroke-miterlimit="8" stroke-dasharray="4.58333 4.58333" stroke-opacity="1" fill="none" fill-rule="evenodd"/><path d="M0 0 28.3853 31.0974" stroke="#7F7F7F" stroke-width="9.16667" stroke-linecap="butt" stroke-linejoin="miter" stroke-miterlimit="8" stroke-opacity="1" fill="none" fill-rule="evenodd" transform="matrix(-1 0 0 1 1554.89 2143.5)"/><path d="M1554.5 2134.5 1583.65 2182.5" stroke="#7F7F7F" stroke-width="9.16667" stroke-linecap="butt" stroke-linejoin="miter" stroke-miterlimit="8" stroke-opacity="1" fill="none" fill-rule="evenodd"/><path d="M1547.5 2176C1547.5 2170.75 1551.08 2166.5 1555.5 2166.5 1559.92 2166.5 1563.5 2170.75 1563.5 2176 1563.5 2181.25 1559.92 2185.5 1555.5 2185.5 1551.08 2185.5 1547.5 2181.25 1547.5 2176Z" stroke="#7F7F7F" stroke-width="4.58333" stroke-linecap="butt" stroke-linejoin="miter" stroke-miterlimit="8" stroke-opacity="1" fill="#7F7F7F" fill-rule="evenodd" fill-opacity="1"/></g></svg>